# xmcd
#
# Track frame offsets:
#	150
#	21865
#	50125
#	73150
#	93535
#	118532
#	141657
#	165160
#	184975
#	211222
#	239185
#	266220
#	288657
#	301237
#	324032
#
# Disc length: 4648 seconds
#
# Revision: 1
# Processed by: cddbd v1.4PL0 Copyright (c) Steve Scherf et al.
# Submitted via: EasyCDDAExtractor 5.0.6
#
DISCID=ea12260f
DTITLE=Kenny G - The Woman I Remember
DYEAR=1999
DGENRE=Blues
TTITLE0=The way to you
TTITLE1=Starlight
TTITLE2=The woman i remember
TTITLE3=Nana's song
TTITLE4=Straight into the sunrise
TTITLE5=I will, i do
TTITLE6=Mystica
TTITLE7=Always
TTITLE8=Blue gala
TTITLE9=Dancing with dolphins
TTITLE10=The mystery of hearts
TTITLE11=Cause we've ended as lovers
TTITLE12=Graduation day
TTITLE13=Songbird
TTITLE14=Silhouette
EXTD=
EXTT0=
EXTT1=
EXTT2=
EXTT3=
EXTT4=
EXTT5=
EXTT6=
EXTT7=
EXTT8=
EXTT9=
EXTT10=
EXTT11=
EXTT12=
EXTT13=
EXTT14=
PLAYORDER=
